<svg width="1024" height="1024" viewBox="0 0 1024 1024" fill="none" xmlns="http://www.w3.org/2000/svg" role="img" aria-label="Firebase logomark">
<path d="M293.251 883.013L213.333 960.309C219.972 966.732 228.601 969.988 237.278 969.988C244.783 969.988 252.335 967.546 258.451 962.87L293.251 883.013Z" fill="#F57C00"/>
<path d="M562.584 506.082L213.333 161.691L213.333 656.853L562.584 506.082Z" fill="url(#paint0_linear_179_1183)"/>
<path d="M732.867 721.805L562.584 824.049L562.584 506.082L732.867 325.895L732.867 721.805Z" fill="url(#paint1_linear_179_1183)"/>
<path d="M732.867 325.895L562.584 123.651L293.251 0L732.867 325.895Z" fill="url(#paint2_linear_179_1183)"/>
<path d="M213.333 161.691L293.251 0L562.584 123.651L213.333 161.691Z" fill="#FFA000"/>
<path d="M258.451 962.87C264.567 967.593 272.119 970.035 279.624 970.035C288.253 970.035 296.929 966.779 303.568 960.356L337.737 883.013L293.251 883.013L258.451 962.87Z" fill="#F57C00"/>
<defs>
<linearGradient id="paint0_linear_179_1183" x1="562.584" y1="409.272" x2="213.333" y2="409.272" gradientUnits="userSpaceOnUse">
<stop stop-color="#FFCA28"/>
<stop offset="1" stop-color="#FFA000"/>
</linearGradient>
<linearGradient id="paint1_linear_179_1183" x1="562.584" y1="574.972" x2="732.867" y2="574.972" gradientUnits="userSpaceOnUse">
<stop stop-color="#F57C00"/>
<stop offset="1" stop-color="#E65100"/>
</linearGradient>
<linearGradient id="paint2_linear_179_1183" x1="732.867" y1="162.947" x2="293.251" y2="162.947" gradientUnits="userSpaceOnUse">
<stop stop-color="#FFCA28"/>
<stop offset="1" stop-color="#FFA000"/>
</linearGradient>
</defs>
</svg>
