<svg version="1.1" id="Layer_1" xmlns="http://www.w3.org/2000/svg" xmlns:xlink="http://www.w3.org/1999/xlink" x="0px" y="0px"
	 width="100%" viewBox="0 0 1826 413" enable-background="new 0 0 1826 413" xml:space="preserve">
<path fill="#000000" opacity="1.000000" stroke="none" 
	d="
M1721.000000,414.000000 
	C1147.397217,414.000000 574.294434,414.000000 1.095828,414.000000 
	C1.095828,276.412628 1.095828,138.825150 1.095828,1.118845 
	C609.666626,1.118845 1218.333374,1.118845 1826.993652,1.118845 
	C1826.993652,138.705811 1826.993652,276.352905 1826.990479,414.000000 
	C1791.824829,414.000000 1756.662476,414.000000 1721.000000,414.000000 
M776.900391,286.624207 
	C819.656189,278.337372 837.968567,238.083588 830.309631,206.362915 
	C806.852173,206.362915 783.456604,206.362915 760.365234,206.362915 
	C760.365234,213.139130 760.365234,219.550171 760.365234,226.134537 
	C776.698730,226.134537 792.667480,226.134537 809.156616,226.134537 
	C808.226807,235.593384 805.212952,243.939407 798.783264,250.611023 
	C785.775085,264.108765 769.682800,268.042755 751.519531,265.014404 
	C718.489075,259.507263 703.005005,228.253723 709.462158,199.161926 
	C712.022949,187.624573 717.858948,177.750137 727.294189,170.133453 
	C737.723267,161.714584 749.863037,157.753494 762.832886,158.248840 
	C775.769409,158.742920 787.868713,162.968658 797.345459,172.703720 
	C798.069458,173.447403 800.427429,173.820374 801.027649,173.272354 
	C806.007812,168.725143 810.752869,163.920471 816.372070,158.405518 
	C809.394958,153.535797 803.606140,148.705124 797.121704,145.139633 
	C784.883240,138.410294 771.522766,136.606293 757.565125,136.854065 
	C739.919983,137.167282 724.393311,142.994934 711.435303,154.329483 
	C690.600586,172.553833 682.137268,195.821976 685.932800,223.513779 
	C688.534851,242.497528 696.829163,258.072113 711.687683,270.233398 
	C725.579773,281.603760 741.484131,287.482513 759.340698,287.925201 
	C764.909485,288.063263 770.500305,287.315765 776.900391,286.624207 
M497.635468,255.967468 
	C501.159973,257.880402 504.733948,259.708160 508.200317,261.721191 
	C521.955200,269.709198 535.655029,277.792114 549.420715,285.761322 
	C554.926575,288.948822 560.509277,288.701691 565.981140,285.536133 
	C570.290466,283.043091 574.573242,280.503937 578.884033,278.013428 
	C593.343140,269.659821 607.904114,261.476379 622.217468,252.880356 
	C626.710205,250.182220 629.116394,245.852402 629.070801,240.121231 
	C628.895874,218.135101 628.971619,196.146713 629.022156,174.159302 
	C629.033264,169.330521 627.123047,165.532288 623.109314,163.059891 
	C617.376099,159.528366 611.444397,156.319687 605.609192,152.952881 
	C593.635498,146.044373 581.511963,139.377457 569.757690,132.113358 
	C562.335815,127.526634 555.279236,125.982918 547.517456,130.874023 
	C543.578308,133.356262 539.475952,135.579803 535.444336,137.914963 
	C521.013489,146.273407 506.576080,154.620392 492.153015,162.992126 
	C487.800720,165.518372 485.969116,169.390488 485.980286,174.370621 
	C486.027039,195.192017 486.390625,216.024292 485.820831,236.830185 
	C485.568817,246.031830 489.334686,251.664124 497.635468,255.967468 
M1103.000000,267.504517 
	C1101.148438,256.734070 1104.452026,248.103256 1113.610840,241.889236 
	C1114.016602,241.613968 1114.339722,241.208710 1114.676514,240.841125 
	C1116.748657,238.578842 1118.094360,238.005463 1120.197388,241.356018 
	C1128.589600,254.726791 1137.346558,267.869446 1146.046997,281.044708 
	C1147.027344,282.529388 1148.460083,284.766327 1149.758301,284.819580 
	C1158.122681,285.162689 1166.507935,284.995026 1176.266357,284.995026 
	C1161.739624,263.391144 1147.964844,242.905777 1134.084961,222.263916 
	C1138.625366,217.774185 1143.135010,213.334381 1147.622192,208.872147 
	C1152.111206,204.408249 1156.727905,200.060074 1161.011475,195.405945 
	C1165.136963,190.923523 1170.580811,187.510651 1173.741699,181.000000 
	C1164.832275,181.000000 1156.877563,180.833160 1148.939087,181.115601 
	C1146.917847,181.187515 1144.469482,182.196930 1143.028931,183.605606 
	C1131.001465,195.367264 1119.166992,207.326141 1107.263428,219.214737 
	C1106.191162,220.285645 1105.042725,221.280411 1102.911743,223.252563 
	C1102.911743,194.555801 1102.911743,167.370316 1102.911743,140.301849 
	C1095.322998,140.301849 1088.250610,140.301849 1081.285156,140.301849 
	C1081.285156,188.662155 1081.285156,236.720123 1081.285156,284.713684 
	C1088.644897,284.713684 1095.716675,284.713684 1103.000000,284.713684 
	C1103.000000,279.119904 1103.000000,273.810791 1103.000000,267.504517 
M897.500000,238.000000 
	C912.925964,238.000000 928.351990,238.000000 944.457581,238.000000 
	C943.943542,230.529175 944.024292,223.564056 942.862000,216.812927 
	C941.315247,207.828979 937.572083,199.552292 931.245117,192.799408 
	C919.811279,180.595688 905.685181,176.251495 889.103577,177.882675 
	C873.307434,179.436615 861.522156,186.682770 852.652466,199.685104 
	C842.618103,214.394745 841.025391,230.561401 844.264160,247.309677 
	C846.815918,260.505554 854.044189,271.260986 865.363525,278.784973 
	C877.133667,286.608704 889.928650,289.060547 904.159790,287.196655 
	C922.187500,284.835510 933.674927,274.646790 942.405029,259.858032 
	C935.804871,256.728210 929.731140,253.848038 923.667786,250.972778 
	C914.700439,266.185455 899.748413,271.217529 882.865906,264.906494 
	C873.350159,261.349274 864.501770,247.498596 865.579895,238.000000 
	C875.869568,238.000000 886.184814,238.000000 897.500000,238.000000 
M1005.899597,199.022552 
	C1006.232849,199.015091 1006.582520,199.071686 1006.896973,198.990997 
	C1021.452820,195.255585 1035.213257,205.525375 1034.280029,221.216187 
	C1033.114624,240.811432 1034.000610,260.528656 1033.999268,280.193207 
	C1033.999023,282.529114 1033.564331,285.059906 1037.244751,285.018890 
	C1043.699219,284.946991 1050.155029,284.998810 1055.998779,284.998810 
	C1055.998779,258.739716 1056.801025,232.842545 1055.614502,207.036804 
	C1055.121338,196.312302 1048.839600,186.829941 1038.236328,181.728592 
	C1030.693848,178.099884 1022.907837,176.944351 1014.387939,177.796402 
	C1004.023560,178.832916 995.915283,183.252884 988.954651,190.545685 
	C988.014709,191.530533 986.870239,192.320251 984.937256,193.940750 
	C984.937256,188.913361 984.937256,185.040741 984.937256,181.298569 
	C977.665955,181.298569 970.925903,181.298569 964.299072,181.298569 
	C964.299072,216.000916 964.299072,250.403915 964.299072,284.697388 
	C971.675598,284.697388 978.749329,284.697388 986.000000,284.697388 
	C986.000000,281.747345 985.959167,279.097809 986.006531,276.449890 
	C986.327271,258.540161 986.065552,240.591888 987.220886,222.735580 
	C987.937683,211.656525 994.886963,203.876602 1005.899597,199.022552 
M1248.000000,226.500000 
	C1248.000000,236.662460 1247.636841,246.841766 1248.106934,256.982452 
	C1248.536499,266.247925 1251.321045,274.540955 1259.635010,280.325256 
	C1269.953125,287.503815 1281.095093,286.690735 1292.449951,284.734314 
	C1294.745361,284.338837 1296.240967,282.804810 1296.090942,279.801208 
	C1295.786621,273.708832 1296.000000,267.590607 1296.000000,261.092682 
	C1293.922485,262.119934 1292.275146,263.159119 1290.483154,263.783203 
	C1280.380249,267.301880 1270.517090,264.024597 1270.948242,250.508133 
	C1271.224243,241.853867 1271.000000,233.183624 1271.000000,224.520554 
	C1271.000000,216.755066 1271.000000,208.989563 1271.000000,200.839462 
	C1279.626587,200.839462 1287.702759,200.839462 1295.719482,200.839462 
	C1295.719482,194.034454 1295.719482,187.630234 1295.719482,180.834778 
	C1287.368408,180.834778 1279.291382,180.834778 1270.833740,180.834778 
	C1270.833740,171.033859 1270.833740,161.624680 1270.833740,152.282776 
	C1263.029053,152.282776 1255.624268,152.282776 1247.831055,152.282776 
	C1247.831055,161.969055 1247.831055,171.378464 1247.831055,181.171158 
	C1241.695923,181.171158 1235.950073,181.171158 1230.286133,181.171158 
	C1230.286133,187.977951 1230.286133,194.381699 1230.286133,201.177811 
	C1236.310791,201.177811 1242.055542,201.177811 1248.000000,201.177811 
	C1248.000000,209.549866 1248.000000,217.524933 1248.000000,226.500000 
M1203.470459,285.000000 
	C1206.241943,285.000000 1209.013306,285.000000 1211.729004,285.000000 
	C1211.729004,250.046021 1211.729004,215.648026 1211.729004,181.272995 
	C1204.050415,181.272995 1196.645508,181.272995 1189.000000,181.272995 
	C1189.000000,190.515625 1189.000000,199.487350 1189.000000,208.459091 
	C1189.000000,232.285217 1189.081177,256.111877 1188.919189,279.936920 
	C1188.892578,283.857666 1189.948853,285.473907 1193.992554,285.055756 
	C1196.795166,284.765930 1199.651733,285.000000 1203.470459,285.000000 
M1202.999878,132.420868 
	C1202.738159,131.580597 1202.476562,130.740326 1202.568604,131.036057 
	C1199.936279,135.579086 1197.987061,141.127777 1194.222656,144.831329 
	C1190.384033,148.607666 1184.760986,150.570068 1180.627686,152.923248 
	C1192.091064,154.993164 1199.823120,162.325806 1202.178467,175.376221 
	C1203.716309,162.479431 1211.708618,156.113495 1223.750610,152.452881 
	C1212.897461,149.390137 1205.498779,143.847046 1202.999878,132.420868 
z"/>
<path fill="#FFFFFF" opacity="1.000000" stroke="none" 
	d="
M776.490723,286.798950 
	C770.500305,287.315765 764.909485,288.063263 759.340698,287.925201 
	C741.484131,287.482513 725.579773,281.603760 711.687683,270.233398 
	C696.829163,258.072113 688.534851,242.497528 685.932800,223.513779 
	C682.137268,195.821976 690.600586,172.553833 711.435303,154.329483 
	C724.393311,142.994934 739.919983,137.167282 757.565125,136.854065 
	C771.522766,136.606293 784.883240,138.410294 797.121704,145.139633 
	C803.606140,148.705124 809.394958,153.535797 816.372070,158.405518 
	C810.752869,163.920471 806.007812,168.725143 801.027649,173.272354 
	C800.427429,173.820374 798.069458,173.447403 797.345459,172.703720 
	C787.868713,162.968658 775.769409,158.742920 762.832886,158.248840 
	C749.863037,157.753494 737.723267,161.714584 727.294189,170.133453 
	C717.858948,177.750137 712.022949,187.624573 709.462158,199.161926 
	C703.005005,228.253723 718.489075,259.507263 751.519531,265.014404 
	C769.682800,268.042755 785.775085,264.108765 798.783264,250.611023 
	C805.212952,243.939407 808.226807,235.593384 809.156616,226.134537 
	C792.667480,226.134537 776.698730,226.134537 760.365234,226.134537 
	C760.365234,219.550171 760.365234,213.139130 760.365234,206.362915 
	C783.456604,206.362915 806.852173,206.362915 830.309631,206.362915 
	C837.968567,238.083588 819.656189,278.337372 776.490723,286.798950 
z"/>
<path fill="#FFFFFF" opacity="1.000000" stroke="none" 
	d="
M497.328674,255.748444 
	C489.334686,251.664124 485.568817,246.031830 485.820831,236.830185 
	C486.390625,216.024292 486.027039,195.192017 485.980286,174.370621 
	C485.969116,169.390488 487.800720,165.518372 492.153015,162.992126 
	C506.576080,154.620392 521.013489,146.273407 535.444336,137.914963 
	C539.475952,135.579803 543.578308,133.356262 547.517456,130.874023 
	C555.279236,125.982918 562.335815,127.526634 569.757690,132.113358 
	C581.511963,139.377457 593.635498,146.044373 605.609192,152.952881 
	C611.444397,156.319687 617.376099,159.528366 623.109314,163.059891 
	C627.123047,165.532288 629.033264,169.330521 629.022156,174.159302 
	C628.971619,196.146713 628.895874,218.135101 629.070801,240.121231 
	C629.116394,245.852402 626.710205,250.182220 622.217468,252.880356 
	C607.904114,261.476379 593.343140,269.659821 578.884033,278.013428 
	C574.573242,280.503937 570.290466,283.043091 565.981140,285.536133 
	C560.509277,288.701691 554.926575,288.948822 549.420715,285.761322 
	C535.655029,277.792114 521.955200,269.709198 508.200317,261.721191 
	C504.733948,259.708160 501.159973,257.880402 497.328674,255.748444 
M573.603271,153.964371 
	C569.762878,151.645782 565.847351,149.441101 562.105042,146.973740 
	C558.922363,144.875397 556.059998,145.094345 552.850952,146.978577 
	C536.780090,156.414658 520.610901,165.683807 504.584137,175.193512 
	C503.303680,175.953278 502.122864,178.086685 502.109344,179.592651 
	C501.941956,198.239471 501.927948,216.889084 502.126251,235.535294 
	C502.143555,237.162842 503.541962,239.432571 504.968140,240.287659 
	C520.939209,249.863159 536.960876,259.363678 553.203735,268.465332 
	C555.418396,269.706329 559.515930,269.735474 561.721191,268.501678 
	C577.970398,259.410492 593.995300,249.914108 609.972351,240.347534 
	C611.409729,239.486893 612.853882,237.238403 612.871216,235.619202 
	C613.072571,216.806534 613.061707,197.990326 612.882385,179.177216 
	C612.868103,177.680038 611.547424,175.591461 610.223572,174.805023 
	C598.347595,167.749969 586.334839,160.925232 573.603271,153.964371 
z"/>
<path fill="#FFFFFF" opacity="1.000000" stroke="none" 
	d="
M1103.000000,268.003082 
	C1103.000000,273.810791 1103.000000,279.119904 1103.000000,284.713684 
	C1095.716675,284.713684 1088.644897,284.713684 1081.285156,284.713684 
	C1081.285156,236.720123 1081.285156,188.662155 1081.285156,140.301849 
	C1088.250610,140.301849 1095.322998,140.301849 1102.911743,140.301849 
	C1102.911743,167.370316 1102.911743,194.555801 1102.911743,223.252563 
	C1105.042725,221.280411 1106.191162,220.285645 1107.263428,219.214737 
	C1119.166992,207.326141 1131.001465,195.367264 1143.028931,183.605606 
	C1144.469482,182.196930 1146.917847,181.187515 1148.939087,181.115601 
	C1156.877563,180.833160 1164.832275,181.000000 1173.741699,181.000000 
	C1170.580811,187.510651 1165.136963,190.923523 1161.011475,195.405945 
	C1156.727905,200.060074 1152.111206,204.408249 1147.622192,208.872147 
	C1143.135010,213.334381 1138.625366,217.774185 1134.084961,222.263916 
	C1147.964844,242.905777 1161.739624,263.391144 1176.266357,284.995026 
	C1166.507935,284.995026 1158.122681,285.162689 1149.758301,284.819580 
	C1148.460083,284.766327 1147.027344,282.529388 1146.046997,281.044708 
	C1137.346558,267.869446 1128.589600,254.726791 1120.197388,241.356018 
	C1118.094360,238.005463 1116.748657,238.578842 1114.676514,240.841125 
	C1114.339722,241.208710 1114.016602,241.613968 1113.610840,241.889236 
	C1104.452026,248.103256 1101.148438,256.734070 1103.000000,268.003082 
z"/>
<path fill="#FFFFFF" opacity="1.000000" stroke="none" 
	d="
M897.000000,238.000000 
	C886.184814,238.000000 875.869568,238.000000 865.579895,238.000000 
	C864.501770,247.498596 873.350159,261.349274 882.865906,264.906494 
	C899.748413,271.217529 914.700439,266.185455 923.667786,250.972778 
	C929.731140,253.848038 935.804871,256.728210 942.405029,259.858032 
	C933.674927,274.646790 922.187500,284.835510 904.159790,287.196655 
	C889.928650,289.060547 877.133667,286.608704 865.363525,278.784973 
	C854.044189,271.260986 846.815918,260.505554 844.264160,247.309677 
	C841.025391,230.561401 842.618103,214.394745 852.652466,199.685104 
	C861.522156,186.682770 873.307434,179.436615 889.103577,177.882675 
	C905.685181,176.251495 919.811279,180.595688 931.245117,192.799408 
	C937.572083,199.552292 941.315247,207.828979 942.862000,216.812927 
	C944.024292,223.564056 943.943542,230.529175 944.457581,238.000000 
	C928.351990,238.000000 912.925964,238.000000 897.000000,238.000000 
M919.976135,212.837128 
	C913.232117,199.730621 902.541992,195.342789 889.800476,197.217407 
	C878.946289,198.814346 869.714905,206.194656 866.611511,219.765259 
	C884.986755,219.765259 903.394104,219.765259 922.111389,219.765259 
	C921.339172,217.522324 920.670715,215.580872 919.976135,212.837128 
z"/>
<path fill="#FFFFFF" opacity="1.000000" stroke="none" 
	d="
M1005.515869,199.181976 
	C994.886963,203.876602 987.937683,211.656525 987.220886,222.735580 
	C986.065552,240.591888 986.327271,258.540161 986.006531,276.449890 
	C985.959167,279.097809 986.000000,281.747345 986.000000,284.697388 
	C978.749329,284.697388 971.675598,284.697388 964.299072,284.697388 
	C964.299072,250.403915 964.299072,216.000916 964.299072,181.298569 
	C970.925903,181.298569 977.665955,181.298569 984.937256,181.298569 
	C984.937256,185.040741 984.937256,188.913361 984.937256,193.940750 
	C986.870239,192.320251 988.014709,191.530533 988.954651,190.545685 
	C995.915283,183.252884 1004.023560,178.832916 1014.387939,177.796402 
	C1022.907837,176.944351 1030.693848,178.099884 1038.236328,181.728592 
	C1048.839600,186.829941 1055.121338,196.312302 1055.614502,207.036804 
	C1056.801025,232.842545 1055.998779,258.739716 1055.998779,284.998810 
	C1050.155029,284.998810 1043.699219,284.946991 1037.244751,285.018890 
	C1033.564331,285.059906 1033.999023,282.529114 1033.999268,280.193207 
	C1034.000610,260.528656 1033.114624,240.811432 1034.280029,221.216187 
	C1035.213257,205.525375 1021.452820,195.255585 1006.896973,198.990997 
	C1006.582520,199.071686 1006.232849,199.015091 1005.515869,199.181976 
z"/>
<path fill="#FFFFFF" opacity="1.000000" stroke="none" 
	d="
M1248.000000,226.000000 
	C1248.000000,217.524933 1248.000000,209.549866 1248.000000,201.177811 
	C1242.055542,201.177811 1236.310791,201.177811 1230.286133,201.177811 
	C1230.286133,194.381699 1230.286133,187.977951 1230.286133,181.171158 
	C1235.950073,181.171158 1241.695923,181.171158 1247.831055,181.171158 
	C1247.831055,171.378464 1247.831055,161.969055 1247.831055,152.282776 
	C1255.624268,152.282776 1263.029053,152.282776 1270.833740,152.282776 
	C1270.833740,161.624680 1270.833740,171.033859 1270.833740,180.834778 
	C1279.291382,180.834778 1287.368408,180.834778 1295.719482,180.834778 
	C1295.719482,187.630234 1295.719482,194.034454 1295.719482,200.839462 
	C1287.702759,200.839462 1279.626587,200.839462 1271.000000,200.839462 
	C1271.000000,208.989563 1271.000000,216.755066 1271.000000,224.520554 
	C1271.000000,233.183624 1271.224243,241.853867 1270.948242,250.508133 
	C1270.517090,264.024597 1280.380249,267.301880 1290.483154,263.783203 
	C1292.275146,263.159119 1293.922485,262.119934 1296.000000,261.092682 
	C1296.000000,267.590607 1295.786621,273.708832 1296.090942,279.801208 
	C1296.240967,282.804810 1294.745361,284.338837 1292.449951,284.734314 
	C1281.095093,286.690735 1269.953125,287.503815 1259.635010,280.325256 
	C1251.321045,274.540955 1248.536499,266.247925 1248.106934,256.982452 
	C1247.636841,246.841766 1248.000000,236.662460 1248.000000,226.000000 
z"/>
<path fill="#FFFFFF" opacity="1.000000" stroke="none" 
	d="
M1202.977295,285.000000 
	C1199.651733,285.000000 1196.795166,284.765930 1193.992554,285.055756 
	C1189.948853,285.473907 1188.892578,283.857666 1188.919189,279.936920 
	C1189.081177,256.111877 1189.000000,232.285217 1189.000000,208.459091 
	C1189.000000,199.487350 1189.000000,190.515625 1189.000000,181.272995 
	C1196.645508,181.272995 1204.050415,181.272995 1211.729004,181.272995 
	C1211.729004,215.648026 1211.729004,250.046021 1211.729004,285.000000 
	C1209.013306,285.000000 1206.241943,285.000000 1202.977295,285.000000 
z"/>
<path fill="#FFFFFF" opacity="1.000000" stroke="none" 
	d="
M1203.000732,132.845673 
	C1205.498779,143.847046 1212.897461,149.390137 1223.750610,152.452881 
	C1211.708618,156.113495 1203.716309,162.479431 1202.178467,175.376221 
	C1199.823120,162.325806 1192.091064,154.993164 1180.627686,152.923248 
	C1184.760986,150.570068 1190.384033,148.607666 1194.222656,144.831329 
	C1197.987061,141.127777 1199.936279,135.579086 1202.568604,131.036057 
	C1202.476562,130.740326 1202.738159,131.580597 1203.000732,132.845673 
z"/>
<path fill="#000000" opacity="1.000000" stroke="none" 
	d="
M573.982788,153.998581 
	C586.334839,160.925232 598.347595,167.749969 610.223572,174.805023 
	C611.547424,175.591461 612.868103,177.680038 612.882385,179.177216 
	C613.061707,197.990326 613.072571,216.806534 612.871216,235.619202 
	C612.853882,237.238403 611.409729,239.486893 609.972351,240.347534 
	C593.995300,249.914108 577.970398,259.410492 561.721191,268.501678 
	C559.515930,269.735474 555.418396,269.706329 553.203735,268.465332 
	C536.960876,259.363678 520.939209,249.863159 504.968140,240.287659 
	C503.541962,239.432571 502.143555,237.162842 502.126251,235.535294 
	C501.927948,216.889084 501.941956,198.239471 502.109344,179.592651 
	C502.122864,178.086685 503.303680,175.953278 504.584137,175.193512 
	C520.610901,165.683807 536.780090,156.414658 552.850952,146.978577 
	C556.059998,145.094345 558.922363,144.875397 562.105042,146.973740 
	C565.847351,149.441101 569.762878,151.645782 573.982788,153.998581 
M548.051880,193.418137 
	C540.078552,201.964279 530.572876,207.329605 518.416565,207.486282 
	C539.675293,209.390793 551.881836,221.801743 558.007812,241.556656 
	C559.765137,232.386093 563.735962,225.506546 569.874023,219.441483 
	C575.895508,213.491516 582.926392,209.946976 591.364258,207.889236 
	C573.145325,203.250854 561.872070,192.157745 558.100403,173.859467 
	C554.778748,180.522949 551.687439,186.724319 548.051880,193.418137 
z"/>
<path fill="#000000" opacity="1.000000" stroke="none" 
	d="
M919.989258,213.238266 
	C920.670715,215.580872 921.339172,217.522324 922.111389,219.765259 
	C903.394104,219.765259 884.986755,219.765259 866.611511,219.765259 
	C869.714905,206.194656 878.946289,198.814346 889.800476,197.217407 
	C902.541992,195.342789 913.232117,199.730621 919.989258,213.238266 
z"/>
<path fill="#FFFFFF" opacity="1.000000" stroke="none" 
	d="
M548.323975,193.171906 
	C551.687439,186.724319 554.778748,180.522949 558.100403,173.859467 
	C561.872070,192.157745 573.145325,203.250854 591.364258,207.889236 
	C582.926392,209.946976 575.895508,213.491516 569.874023,219.441483 
	C563.735962,225.506546 559.765137,232.386093 558.007812,241.556656 
	C551.881836,221.801743 539.675293,209.390793 518.416565,207.486282 
	C530.572876,207.329605 540.078552,201.964279 548.323975,193.171906 
z"/>
</svg>