<svg width="100" height="100" viewBox="0 0 128 128" fill="none" xmlns="http://www.w3.org/2000/svg">
<circle cx="64" cy="64" r="64" fill="black"/>
<path d="M98.766 98.7661C98.3902 99.1419 97.9268 99.4291 97.4118 99.6099C96.8968 99.7907 96.3433 99.8612 95.7902 99.8166C95.2372 99.772 94.6978 99.6133 94.2109 99.3502C93.724 99.0871 93.3009 98.7257 92.9727 98.291L69.7553 69.7688V95.7902H62.974V32H70.0378L92.8893 60.0785L92.9727 60.0785V32H99.754V69.4348L99.0487 70.0378L98.766 98.7661Z" fill="url(#paint0_linear_1_2)"/>
<path d="M92.9727 60.0785L69.7553 32H62.974V95.7902H69.7553V69.7688L92.9727 98.291C93.3009 98.7257 93.724 99.0871 94.2109 99.3502C94.6978 99.6133 95.2372 99.772 95.7902 99.8166C96.3433 99.8612 96.8968 99.7907 97.4118 99.6099C97.9268 99.4291 98.3902 99.1419 98.766 98.7661C99.1419 98.3902 99.4291 97.9268 99.6099 97.4118C99.7907 96.8968 99.8612 96.3433 99.8166 95.7902C99.772 95.2372 99.6133 94.6978 99.3502 94.2109C99.0871 93.724 98.7257 93.3009 98.291 92.9727L60.3847 50.5938H99.754V32H28V96H36.7812V32H37.1471L38.5516 33.036L92.9727 60.0785Z" fill="url(#paint1_radial_1_2)"/>
<defs>
<linearGradient id="paint0_linear_1_2" x1="62.974" y1="32" x2="99.754" y2="98.7661" gradientUnits="userSpaceOnUse">
<stop stop-color="white"/>
<stop offset="1" stop-color="white" stop-opacity="0"/>
</linearGradient>
<radialGradient id="paint1_radial_1_2" cx="0" cy="0" r="1" gradientUnits="userSpaceOnUse" gradientTransform="translate(48.5403 49.5999) rotate(135) scale(48.5352 48.7075)">
<stop stop-color="white"/>
<stop offset="1" stop-color="white" stop-opacity="0"/>
</radialGradient>
</defs>
</svg>