<svg xmlns="http://www.w3.org/2000/svg" viewBox="0 0 256 256" width="1em" height="1em" fill="currentColor">
  <path fill="#8CC84B" d="M128 0C57.308 0 0 57.308 0 128s57.308 128 128 128 128-57.308 128-128S198.692 0 128 0zm0 243.23c-63.604 0-115.23-51.626-115.23-115.23S64.396 12.77 128 12.77s115.23 51.626 115.23 115.23-51.626 115.23-115.23 115.23z"/>
  <path fill="#44883e" d="M133.695 206.222l-34.743-20.058v-40.116l-23.162-13.371V92.562l57.905-33.432l57.905 33.432v80.232l-23.162 13.371v20.058zm2.518-123.717l-34.743-20.058l-34.743 20.058v40.116l34.743 20.058l34.743-20.058zm-11.581 73.59l-23.162-13.371v-26.742l23.162-13.371z"/>
  <path fill="#303030" d="M128.205 50.593c-26.173 0-47.985 15.88-47.985 40.238c0 19.064 13.564 34.903 32.423 39.272l-11.211 26.333h12.441l8.15-19.413c2.108.22 4.263.342 6.46.342c28.035 0 50.783-18.256 50.783-42.844c0-20.677-17.99-33.928-40.9-33.928zm0 65.512c-1.905 0-3.77-.11-5.576-.317l8.197-19.32c.44.047.88.075 1.326.075c11.258 0 19.29-6.07 19.29-14.43c0-8.96-8.958-13.34-19.716-13.34c-11.902 0-20.164 6.27-20.164 15.052c0 2.56.804 4.94 2.21 6.933l-11.01 6.348c-2.25-3.91-3.533-8.36-3.533-13.184c0-14.83 14.02-26.603 32.496-26.603c21.03 0 33.36 10.823 33.36 24.716c0 17.22-15.61 27.043-33.36 27.043z"/>
</svg>
