<svg xmlns="http://www.w3.org/2000/svg" viewBox="0 0 249.688 250" width="1em" height="1em" {...props}>
  <path fill="#306998" d="M124.844 250c68.945 0 124.844-55.9 124.844-124.844C249.688 55.9 193.789 0 124.844 0 55.9 0 0 55.9 0 124.844c0 68.945 55.9 124.844 124.844 124.844z"/>
  <path fill="#FFD43B" d="M119.387 61.998c-11.734 0-20.492 3.957-27.262 10.727-5.992 5.992-10.117 14.75-10.117 25.684v16.195h28.883v-12.137c0-4.73.492-8.105 1.64-10.312 1.145-2.207 3.063-3.96 5.754-5.258 2.69-1.297 6.07-1.945 10.12-1.945 6.87 0 11.89 2.004 15.06 6.012 3.17 4.01 4.75 9.85 4.75 17.54v21.97h33.62v-24.05c0-11.32-3.06-20.44-9.18-27.36-6.12-6.92-14.74-10.37-25.87-10.37-8.58 0-15.91 2.26-21.98 6.79-6.06 4.53-10.11 9.67-12.13 15.42h-2.78c-.97-4.53-2.69-8.58-5.17-12.13-2.48-3.55-5.46-6.25-8.93-8.09-3.47-1.84-6.99-2.76-10.56-2.76zm-.36 126.05c11.74 0 20.49-3.95 27.26-10.72 5.99-5.99 10.11-14.75 10.11-25.68v-16.2h-28.88v12.14c0 4.73-.49 8.1-1.64 10.31-1.15 2.21-3.06 3.96-5.75 5.26-2.69 1.3-6.07 1.94-10.12 1.94-6.87 0-11.89-2-15.06-6.02-3.17-4.01-4.75-9.85-4.75-17.54v-21.97h-33.62v24.05c0 11.32 3.06 20.44 9.18 27.36 6.12 6.92 14.74 10.37 25.87 10.37 8.58 0 15.91-2.26 21.98-6.79 6.06-4.53 10.11-9.67 12.13-15.42h2.78c.97 4.53 2.69 8.58 5.17 12.13 2.48 3.55 5.46 6.25 8.93 8.09 3.47 1.84 6.99 2.76 10.56 2.76z"/>
</svg>